<svg id="Layer_2" data-name="Layer 2" xmlns="http://www.w3.org/2000/svg" viewBox="0 0 392.285 473.33"><defs><style>.cls-1{fill:#a00d4e;}</style></defs><title>Lathliss</title><path class="cls-1" d="M350.5,123.335v96.2a108.009,108.009,0,0,0-97.94,92.51l15.3,15.37-15.24,15.31a108.036,108.036,0,0,0,97.88,92.06v161.88c0-58.67-20.77-122.07-79.1-180.4-23.83-23.83-45.89-38.58-68.4-44.55h39.6a126.193,126.193,0,0,1,28.3-133.15c.65-.65,1.31-1.3,1.96-1.94C311.74,198.245,350.5,174.185,350.5,123.335Z" transform="translate(-163.358 -123.335)"/><line class="cls-1" x1="79.252" y1="248.38" x2="79.242" y2="248.38"/><path class="cls-1" d="M368.5,123.335v96.2a108.009,108.009,0,0,1,97.94,92.51l-15.3,15.37,15.24,15.31a108.036,108.036,0,0,1-97.88,92.06v161.88c0-58.67,20.77-122.07,79.1-180.4,23.83-23.83,45.89-38.58,68.4-44.55H476.4a126.193,126.193,0,0,0-28.3-133.15c-.65-.65-1.31-1.3-1.96-1.94C407.26,198.245,368.5,174.185,368.5,123.335Z" transform="translate(-163.358 -123.335)"/><path class="cls-1" d="M384.423,596.665l10.08-28.884c5.568-15.956,24.6-30.223,42.508-31.874l32.436-2.99L459.367,561.8c-5.568,15.956-24.6,30.223-42.515,31.875Z" transform="translate(-163.358 -123.335)"/><path class="cls-1" d="M423.958,530.439l10.08-28.884c5.568-15.956,24.6-30.223,42.508-31.874l32.436-2.99L498.9,495.574c-5.568,15.956-24.6,30.223-42.515,31.875Z" transform="translate(-163.358 -123.335)"/><path class="cls-1" d="M470.619,563.181,480.7,534.3c5.568-15.956,24.6-30.223,42.508-31.874l32.436-2.99-10.08,28.884c-5.568,15.956-24.6,30.223-42.515,31.875Z" transform="translate(-163.358 -123.335)"/><path class="cls-1" d="M334.577,596.665,324.5,567.781c-5.568-15.956-24.6-30.223-42.508-31.874l-32.436-2.99,10.08,28.884c5.568,15.956,24.6,30.223,42.515,31.875Z" transform="translate(-163.358 -123.335)"/><path class="cls-1" d="M295.042,530.439l-10.08-28.884c-5.568-15.956-24.6-30.223-42.508-31.874l-32.436-2.99,10.08,28.884c5.568,15.956,24.6,30.223,42.515,31.875Z" transform="translate(-163.358 -123.335)"/><path class="cls-1" d="M248.381,563.181,238.3,534.3c-5.568-15.956-24.6-30.223-42.508-31.874l-32.436-2.99,10.08,28.884c5.568,15.956,24.6,30.223,42.515,31.875Z" transform="translate(-163.358 -123.335)"/></svg>